solid OpenSCAD_Model
  facet normal 1 0 -0
    outer loop
      vertex 2.7 105.5 -46.9
      vertex 2.7 105.5 23.1
      vertex 2.7 55.5 5.4
    endloop
  endfacet
  facet normal 1 0 -0
    outer loop
      vertex 2.7 55.5 5.4
      vertex 2.7 55.5 85.4
      vertex 2.7 42.5 5.4
    endloop
  endfacet
  facet normal 1 0 0
    outer loop
      vertex 2.7 105.5 23.1
      vertex 2.7 55.5 85.4
      vertex 2.7 55.5 5.4
    endloop
  endfacet
  facet normal 1 0 0
    outer loop
      vertex 2.7 42.5 5.4
      vertex 2.7 55.5 85.4
      vertex 2.7 42.5 85.4
    endloop
  endfacet
  facet normal -1 0 0
    outer loop
      vertex 0 55.5 5.4
      vertex 0 105.5 23.1
      vertex 0 105.5 -46.9
    endloop
  endfacet
  facet normal -1 0 0
    outer loop
      vertex 0 42.5 5.4
      vertex 0 55.5 85.4
      vertex 0 55.5 5.4
    endloop
  endfacet
  facet normal -1 0 0
    outer loop
      vertex 0 55.5 5.4
      vertex 0 55.5 85.4
      vertex 0 105.5 23.1
    endloop
  endfacet
  facet normal -1 0 0
    outer loop
      vertex 0 42.5 85.4
      vertex 0 55.5 85.4
      vertex 0 42.5 5.4
    endloop
  endfacet
  facet normal 0 1 -0
    outer loop
      vertex 2.7 105.5 -46.9
      vertex 0 105.5 23.1
      vertex 2.7 105.5 23.1
    endloop
  endfacet
  facet normal 0 1 0
    outer loop
      vertex 2.7 105.5 -46.9
      vertex 0 105.5 -46.9
      vertex 0 105.5 23.1
    endloop
  endfacet
  facet normal 0 -0.722822 -0.691034
    outer loop
      vertex 2.7 55.5 5.4
      vertex 0 105.5 -46.9
      vertex 2.7 105.5 -46.9
    endloop
  endfacet
  facet normal -0 -0.722822 -0.691034
    outer loop
      vertex 2.7 55.5 5.4
      vertex 0 55.5 5.4
      vertex 0 105.5 -46.9
    endloop
  endfacet
  facet normal 0 0 -1
    outer loop
      vertex 2.7 42.5 5.4
      vertex 0 55.5 5.4
      vertex 2.7 55.5 5.4
    endloop
  endfacet
  facet normal 0 0 -1
    outer loop
      vertex 2.7 42.5 5.4
      vertex 0 42.5 5.4
      vertex 0 55.5 5.4
    endloop
  endfacet
  facet normal 0 -1 -0
    outer loop
      vertex 2.7 42.5 85.4
      vertex 0 42.5 5.4
      vertex 2.7 42.5 5.4
    endloop
  endfacet
  facet normal -0 -1 0
    outer loop
      vertex 2.7 42.5 85.4
      vertex 0 42.5 85.4
      vertex 0 42.5 5.4
    endloop
  endfacet
  facet normal 0 0 1
    outer loop
      vertex 2.7 55.5 85.4
      vertex 0 42.5 85.4
      vertex 2.7 42.5 85.4
    endloop
  endfacet
  facet normal 0 0 1
    outer loop
      vertex 2.7 55.5 85.4
      vertex 0 55.5 85.4
      vertex 0 42.5 85.4
    endloop
  endfacet
  facet normal 0 0.779891 0.625916
    outer loop
      vertex 2.7 105.5 23.1
      vertex 0 55.5 85.4
      vertex 2.7 55.5 85.4
    endloop
  endfacet
  facet normal 0 0.779891 0.625916
    outer loop
      vertex 2.7 105.5 23.1
      vertex 0 105.5 23.1
      vertex 0 55.5 85.4
    endloop
  endfacet
endsolid OpenSCAD_Model
